<svg width="24" height="22" viewBox="0 0 24 22" fill="none" xmlns="http://www.w3.org/2000/svg">
<path d="M17.1335 4.50317H5.86679C5.38814 4.50317 5.00012 4.85999 5.00012 5.30015V18.0518C5.00012 18.492 5.38814 18.8488 5.86679 18.8488H17.1335C17.6121 18.8488 18.0001 18.492 18.0001 18.0518V5.30015C18.0001 4.85999 17.6121 4.50317 17.1335 4.50317Z" stroke="#55AB60" stroke-width="1.5" stroke-linejoin="round"/>
<path d="M8.90076 2.90918V5.30012V2.90918Z" fill="white"/>
<path d="M8.90076 2.90918V5.30012" stroke="#55AB60" stroke-width="1.5" stroke-linecap="round" stroke-linejoin="round"/>
<path d="M14.0999 2.90918V5.30012V2.90918Z" fill="white"/>
<path d="M14.0999 2.90918V5.30012" stroke="#55AB60" stroke-width="1.5" stroke-linecap="round" stroke-linejoin="round"/>
<path d="M8.03296 8.88647H14.9663H8.03296Z" fill="white"/>
<path d="M8.03296 8.88647H14.9663" stroke="#55AB60" stroke-width="1.5" stroke-linecap="round" stroke-linejoin="round"/>
<path d="M8.03296 12.0745H13.233H8.03296Z" fill="white"/>
<path d="M8.03296 12.0745H13.233" stroke="#55AB60" stroke-width="1.5" stroke-linecap="round" stroke-linejoin="round"/>
<path d="M8.03296 15.2625H11.4996H8.03296Z" fill="white"/>
<path d="M8.03296 15.2625H11.4996" stroke="#55AB60" stroke-width="1.5" stroke-linecap="round" stroke-linejoin="round"/>
</svg>
