<svg width="20" height="20" viewBox="0 0 20 20" fill="none" xmlns="http://www.w3.org/2000/svg">
<g clip-path="url(#clip0_102_573)">
<g filter="url(#filter0_ddd_102_573)">
<path d="M8.14053 17.5H11.3967M15.467 17.5V4.16667C15.467 3.72464 15.2955 3.30072 14.9902 2.98816C14.6848 2.67559 14.2707 2.5 13.8389 2.5H5.69836C5.26656 2.5 4.85244 2.67559 4.54711 2.98816C4.24178 3.30072 4.07025 3.72464 4.07025 4.16667V17.5H15.467ZM15.467 17.5H17.0951H15.467ZM15.467 17.5H11.3967H15.467ZM4.07025 17.5H2.44214H4.07025ZM4.07025 17.5H8.14053H4.07025ZM7.32647 5.83333H8.14053H7.32647ZM7.32647 9.16667H8.14053H7.32647ZM11.3967 5.83333H12.2108H11.3967ZM11.3967 9.16667H12.2108H11.3967ZM8.14053 17.5V13.3333C8.14053 13.1123 8.22629 12.9004 8.37896 12.7441C8.53162 12.5878 8.73868 12.5 8.95458 12.5H10.5827C10.7986 12.5 11.0056 12.5878 11.1583 12.7441C11.311 12.9004 11.3967 13.1123 11.3967 13.3333V17.5H8.14053Z" stroke="black" stroke-width="2" stroke-linecap="round" stroke-linejoin="round" shape-rendering="crispEdges"/>
</g>
</g>
<defs>
<filter id="filter0_ddd_102_573" x="-2.55786" y="1.5" width="24.653" height="25" filterUnits="userSpaceOnUse" color-interpolation-filters="sRGB">
<feFlood flood-opacity="0" result="BackgroundImageFix"/>
<feColorMatrix in="SourceAlpha" type="matrix" values="0 0 0 0 0 0 0 0 0 0 0 0 0 0 0 0 0 0 127 0" result="hardAlpha"/>
<feOffset dy="4"/>
<feGaussianBlur stdDeviation="2"/>
<feComposite in2="hardAlpha" operator="out"/>
<feColorMatrix type="matrix" values="0 0 0 0 0 0 0 0 0 0 0 0 0 0 0 0 0 0 0.25 0"/>
<feBlend mode="normal" in2="BackgroundImageFix" result="effect1_dropShadow_102_573"/>
<feColorMatrix in="SourceAlpha" type="matrix" values="0 0 0 0 0 0 0 0 0 0 0 0 0 0 0 0 0 0 127 0" result="hardAlpha"/>
<feOffset dy="4"/>
<feGaussianBlur stdDeviation="2"/>
<feComposite in2="hardAlpha" operator="out"/>
<feColorMatrix type="matrix" values="0 0 0 0 0 0 0 0 0 0 0 0 0 0 0 0 0 0 0.25 0"/>
<feBlend mode="normal" in2="effect1_dropShadow_102_573" result="effect2_dropShadow_102_573"/>
<feColorMatrix in="SourceAlpha" type="matrix" values="0 0 0 0 0 0 0 0 0 0 0 0 0 0 0 0 0 0 127 0" result="hardAlpha"/>
<feOffset dy="4"/>
<feGaussianBlur stdDeviation="2"/>
<feComposite in2="hardAlpha" operator="out"/>
<feColorMatrix type="matrix" values="0 0 0 0 0 0 0 0 0 0 0 0 0 0 0 0 0 0 0.25 0"/>
<feBlend mode="normal" in2="effect2_dropShadow_102_573" result="effect3_dropShadow_102_573"/>
<feBlend mode="normal" in="SourceGraphic" in2="effect3_dropShadow_102_573" result="shape"/>
</filter>
<clipPath id="clip0_102_573">
<rect width="19.5373" height="20" fill="white"/>
</clipPath>
</defs>
</svg>
