<svg width="24" height="24" viewBox="0 0 24 24" fill="none" xmlns="http://www.w3.org/2000/svg">
<g clip-path="url(#clip0_102_866)">
<path d="M6.49939 19H4.49939C4.22339 19 3.99939 18.776 3.99939 18.5C3.99939 18.224 4.22339 18 4.49939 18H6.49939C6.77539 18 6.99939 18.224 6.99939 18.5C6.99939 18.776 6.77539 19 6.49939 19Z" fill="#55AB60"/>
<path d="M22.7505 19H21.5005C21.2245 19 21.0005 18.776 21.0005 18.5C21.0005 18.224 21.2245 18 21.5005 18H22.3355L23.0095 14.408C23.0005 12.57 21.4305 11 19.5005 11H16.2175L14.6265 18H17.5005C17.7765 18 18.0005 18.224 18.0005 18.5C18.0005 18.776 17.7765 19 17.5005 19H14.0005C13.8485 19 13.7045 18.931 13.6095 18.812C13.5145 18.694 13.4785 18.538 13.5125 18.39L15.3305 10.39C15.3825 10.161 15.5845 10 15.8185 10H19.5005C21.9815 10 24.0005 12.019 24.0005 14.5L23.2415 18.592C23.1975 18.829 22.9915 19 22.7505 19Z" fill="#55AB60"/>
<path d="M19.5006 21C18.1226 21 17.0006 19.879 17.0006 18.5C17.0006 17.121 18.1226 16 19.5006 16C20.8786 16 22.0006 17.121 22.0006 18.5C22.0006 19.879 20.8786 21 19.5006 21ZM19.5006 17C18.6736 17 18.0006 17.673 18.0006 18.5C18.0006 19.327 18.6736 20 19.5006 20C20.3276 20 21.0006 19.327 21.0006 18.5C21.0006 17.673 20.3276 17 19.5006 17Z" fill="#55AB60"/>
<path d="M8.5 21C7.122 21 6 19.879 6 18.5C6 17.121 7.122 16 8.5 16C9.878 16 11 17.121 11 18.5C11 19.879 9.878 21 8.5 21ZM8.5 17C7.673 17 7 17.673 7 18.5C7 19.327 7.673 20 8.5 20C9.327 20 10 19.327 10 18.5C10 17.673 9.327 17 8.5 17Z" fill="#55AB60"/>
<path d="M6.50061 10H2.50061C2.22461 10 2.00061 9.776 2.00061 9.5C2.00061 9.224 2.22461 9 2.50061 9H6.50061C6.77661 9 7.00061 9.224 7.00061 9.5C7.00061 9.776 6.77661 10 6.50061 10Z" fill="#55AB60"/>
<path d="M6.49939 13H1.49939C1.22339 13 0.99939 12.776 0.99939 12.5C0.99939 12.224 1.22339 12 1.49939 12H6.49939C6.77539 12 6.99939 12.224 6.99939 12.5C6.99939 12.776 6.77539 13 6.49939 13Z" fill="#55AB60"/>
<path d="M6.5 16H0.5C0.224 16 0 15.776 0 15.5C0 15.224 0.224 15 0.5 15H6.5C6.776 15 7 15.224 7 15.5C7 15.776 6.776 16 6.5 16Z" fill="#55AB60"/>
<path d="M13.9994 19H10.4994C10.2234 19 9.99939 18.776 9.99939 18.5C9.99939 18.224 10.2234 18 10.4994 18H13.6004L15.8724 8H4.49939C4.22339 8 3.99939 7.776 3.99939 7.5C3.99939 7.224 4.22339 7 4.49939 7H16.4994C16.6514 7 16.7954 7.069 16.8904 7.188C16.9854 7.306 17.0214 7.462 16.9874 7.61L14.4874 18.61C14.4354 18.839 14.2324 19 13.9994 19Z" fill="#55AB60"/>
</g>
<defs>
<clipPath id="clip0_102_866">
<rect width="24" height="24" fill="white"/>
</clipPath>
</defs>
</svg>
