<svg width="24" height="24" viewBox="0 0 24 24" fill="none" xmlns="http://www.w3.org/2000/svg">
<g clip-path="url(#clip0_102_863)">
<path d="M17.4193 9.29072C17.4193 4.24458 12.4518 0.251775 12.2405 0.0841245C12.0997 -0.0273904 11.9006 -0.0273904 11.7596 0.0841245C11.5483 0.251775 6.58081 4.24458 6.58081 9.29072C6.58081 13.9207 10.7615 17.6611 11.613 18.3764V22.4517C11.613 22.6655 11.7863 22.8388 12.0001 22.8388C12.2138 22.8388 12.3871 22.6655 12.3871 22.4517V18.3764C13.2388 17.6611 17.4193 13.9207 17.4193 9.29072ZM12.3871 17.3343V12.9537L14.5704 11.1368C14.7348 10.9999 14.7571 10.7557 14.6203 10.5913C14.4834 10.4268 14.2392 10.4045 14.075 10.5414L12.3871 11.9465V10.6304L14.5704 8.81329C14.7348 8.67663 14.7571 8.43243 14.6203 8.268C14.4834 8.10356 14.2392 8.08126 14.075 8.2181L12.3871 9.62394V7.92079L14.5704 6.10366C14.7348 5.96701 14.7571 5.72281 14.6203 5.55837C14.4834 5.39394 14.2392 5.37163 14.075 5.50847L12.3871 6.91432V3.87147C12.3871 3.65771 12.2138 3.48438 12.0001 3.48438C11.7863 3.48438 11.613 3.65771 11.613 3.87147V6.91432L9.92531 5.50923C9.76088 5.37239 9.51668 5.39469 9.37984 5.55913C9.24299 5.72357 9.26549 5.96776 9.42992 6.10461L11.613 7.92154V9.6247L9.92531 8.21961C9.76088 8.08277 9.51668 8.10507 9.37984 8.26951C9.24299 8.43395 9.26549 8.67814 9.42992 8.81499L11.613 10.6312V11.9472L9.92531 10.5421C9.76088 10.4053 9.51668 10.4276 9.37984 10.592C9.24299 10.7565 9.26549 11.0007 9.42992 11.1375L11.613 12.9537V17.3343C10.2969 16.0996 7.35499 12.9348 7.35499 9.29072C7.35499 5.22855 11.0165 1.75439 12.0001 0.894781C12.9837 1.75439 16.6451 5.22855 16.6451 9.29072C16.6451 12.9348 13.7032 16.0996 12.3871 17.3343Z" fill="#55AB60"/>
<path d="M9.29026 20.5163H8.90317V17.6738C8.90449 17.1603 8.70036 16.6675 8.33614 16.3056L5.07764 13.0454C4.62459 12.5942 3.8918 12.5942 3.43875 13.0454L3.09683 13.3884V9.2907C3.09645 8.86052 2.91728 8.45 2.6022 8.15722C2.28731 7.86426 1.86488 7.71551 1.43583 7.74613C0.610806 7.82646 -0.0142441 8.52711 0.000120585 9.3561V14.8855C-6.84228e-05 15.3671 0.1793 15.8313 0.50345 16.1874L3.87101 19.8918V20.5163H3.48392C3.27015 20.5163 3.09683 20.6896 3.09683 20.9034V23.613C3.09683 23.8268 3.27015 24.0001 3.48392 24.0001H9.29026C9.50403 24.0001 9.67735 23.8268 9.67735 23.613V20.9034C9.67735 20.6896 9.50403 20.5163 9.29026 20.5163ZM1.07633 15.6663C0.881844 15.4529 0.77411 15.1743 0.774299 14.8855V9.3561C0.763903 8.93461 1.07312 8.57304 1.49121 8.51842C1.71575 8.50235 1.93632 8.58457 2.09547 8.74372C2.24138 8.88831 2.32322 9.08525 2.32265 9.2907V14.0019C2.32171 14.3102 2.44419 14.606 2.66287 14.8234L4.75859 16.9191C4.91056 17.0657 5.15192 17.0637 5.30124 16.9144C5.45055 16.765 5.45263 16.5235 5.30596 16.3717L3.52928 14.5948C3.45689 14.5228 3.41626 14.4249 3.41626 14.3229C3.41626 14.2206 3.45689 14.1227 3.52928 14.0507L3.98612 13.5942C4.13676 13.4453 4.37944 13.4453 4.53027 13.5942L7.78878 16.8531C8.00595 17.0712 8.12823 17.3661 8.12899 17.6738V20.5163H4.64519V19.5922L1.07633 15.6663ZM8.90317 23.2259H3.87101V21.2905H8.90317V23.2259Z" fill="#55AB60"/>
<path d="M22.5646 7.74613C22.1358 7.71551 21.7132 7.86426 21.3983 8.15722C21.0834 8.45 20.9042 8.86052 20.9036 9.2907V13.3884L20.5619 13.0465C20.1089 12.5953 19.3761 12.5953 18.923 13.0465L15.6645 16.3056C15.3003 16.6675 15.0962 17.1603 15.0973 17.6738V20.5163H14.7102C14.4964 20.5163 14.3231 20.6896 14.3231 20.9034V23.613C14.3231 23.8268 14.4964 24.0001 14.7102 24.0001H20.5165C20.7303 24.0001 20.9036 23.8268 20.9036 23.613V20.9034C20.9036 20.6896 20.7303 20.5163 20.5165 20.5163H20.1295V19.8918L23.4972 16.1874C23.8214 15.8313 24.0007 15.3671 24.0003 14.8855V9.3561C24.0147 8.52711 23.3898 7.82646 22.5646 7.74613ZM20.1295 23.2259H15.0973V21.2905H20.1295V23.2259ZM23.2262 14.8855C23.2265 15.1743 23.1188 15.4529 22.9243 15.6663L19.3553 19.5922V20.5163H15.8715V17.6738C15.8722 17.3661 15.9945 17.0709 16.2117 16.8527L19.4715 13.5942C19.6222 13.4453 19.8648 13.4453 20.0157 13.5942L20.4725 14.0511C20.6216 14.2009 20.6216 14.4431 20.4725 14.593L18.6949 16.3706C18.5943 16.4677 18.5539 16.6116 18.5894 16.7469C18.6248 16.8822 18.7306 16.9881 18.8659 17.0234C19.0013 17.0588 19.1451 17.0185 19.2423 16.9178L21.338 14.8222C21.5561 14.6049 21.6784 14.3096 21.6778 14.0019V9.2907C21.6774 9.08525 21.7593 8.88831 21.905 8.74372C22.0643 8.58457 22.2847 8.50254 22.5093 8.51842C22.9273 8.57304 23.2368 8.93461 23.2262 9.3561V14.8855Z" fill="#55AB60"/>
<path d="M11.726 23.3383C11.6552 23.4124 11.6151 23.5104 11.6138 23.6131C11.6145 23.639 11.617 23.6649 11.6215 23.6904C11.6259 23.7148 11.6336 23.7382 11.6448 23.7601C11.6533 23.7847 11.665 23.8081 11.6795 23.8299C11.6939 23.8501 11.7094 23.8694 11.726 23.8879C11.8788 24.0376 12.1232 24.0376 12.2757 23.8879L12.3222 23.8299C12.3367 23.8081 12.3485 23.7847 12.357 23.7601C12.3683 23.7382 12.3761 23.7148 12.3798 23.6904C12.3848 23.6649 12.3874 23.639 12.388 23.6131C12.3889 23.4558 12.2946 23.3135 12.1494 23.2532C12.0041 23.1929 11.8368 23.2266 11.726 23.3383Z" fill="#55AB60"/>
<path d="M4.64528 22.4517H6.19366C6.40744 22.4517 6.58076 22.2784 6.58076 22.0646C6.58076 21.8508 6.40744 21.6775 6.19366 21.6775H4.64528C4.4315 21.6775 4.25818 21.8508 4.25818 22.0646C4.25818 22.2784 4.4315 22.4517 4.64528 22.4517Z" fill="#55AB60"/>
<path d="M7.20779 22.4208C7.25429 22.4407 7.30438 22.4511 7.35484 22.4518C7.5121 22.4526 7.65443 22.3582 7.71472 22.2131C7.77502 22.0679 7.74137 21.9005 7.62967 21.7899C7.51834 21.6799 7.35201 21.6479 7.20779 21.7084C7.16035 21.7271 7.11707 21.7547 7.08002 21.7899C7.00914 21.864 6.96907 21.9621 6.96775 22.0647C6.96416 22.2222 7.06036 22.3651 7.20779 22.4208Z" fill="#55AB60"/>
<path d="M15.8635 9.9874C15.8598 9.96321 15.852 9.93958 15.8407 9.91765C15.8322 9.89308 15.8204 9.86964 15.8059 9.8481L15.7594 9.79007C15.6042 9.6468 15.3649 9.6468 15.2097 9.79007C15.1931 9.8084 15.1776 9.82768 15.1632 9.8481C15.1487 9.86964 15.137 9.89308 15.1285 9.91765C15.1173 9.93958 15.1096 9.96321 15.1052 9.9874C15.1009 10.0131 15.0984 10.0388 15.0975 10.0649C15.0988 10.1673 15.1389 10.2656 15.2097 10.3397C15.2835 10.4112 15.3819 10.4512 15.4846 10.452C15.5876 10.4529 15.6866 10.4125 15.7596 10.3397C15.8324 10.2669 15.8728 10.1677 15.8717 10.0649C15.8709 10.0388 15.8683 10.0129 15.8635 9.9874Z" fill="#55AB60"/>
</g>
<defs>
<clipPath id="clip0_102_863">
<rect width="24" height="24" fill="white"/>
</clipPath>
</defs>
</svg>
