<svg width="24" height="24" viewBox="0 0 24 24" fill="none" xmlns="http://www.w3.org/2000/svg">
<path d="M21.0872 4.85934L12.067 0.052884C11.9331 -0.0185362 11.7728 -0.0175338 11.6399 0.05539L2.86929 4.86185C2.72544 4.94078 2.63623 5.09164 2.63623 5.25578V11.5342C2.64149 16.6953 5.69928 21.3644 10.4281 23.4321L11.6455 23.9626C11.7592 24.0122 11.8888 24.0125 12.0028 23.9631L13.3746 23.3707C18.1911 21.3479 21.3245 16.6337 21.325 11.4097V5.25578C21.325 5.08989 21.2336 4.93728 21.0872 4.85934ZM20.4269 11.4097C20.4259 16.2735 17.5077 20.6623 13.023 22.5445L13.02 22.546L11.8254 23.0617L10.7874 22.6089C6.38567 20.6843 3.53913 16.3384 3.53412 11.5342V5.52167L11.8587 0.959294L20.4269 5.52493V11.4097Z" fill="#55AB60"/>
<path d="M8.54578 11.2431C8.38465 11.0544 8.10122 11.0321 7.91252 11.1932C7.72382 11.3541 7.70152 11.6378 7.86265 11.8263L10.2348 14.6041C10.3932 14.7896 10.6706 14.8149 10.8595 14.661L16.3842 10.1663C16.5767 10.0099 16.6057 9.727 16.4491 9.53454C16.2927 9.34233 16.0098 9.31301 15.8174 9.46963L10.633 13.6872L8.54578 11.2431Z" fill="#55AB60"/>
</svg>
