<svg width="24" height="22" viewBox="0 0 24 22" fill="none" xmlns="http://www.w3.org/2000/svg">
<path d="M11.9998 1.78198C10.6921 1.78198 9.69206 2.66751 9.69206 3.82552V7.91259C9.69206 9.0706 10.6921 9.95613 11.9998 9.95613H16.6151L19.6921 12.6808V9.95613C20.9998 9.95613 21.9998 9.0706 21.9998 7.91259V3.82552C21.9998 2.66751 20.9998 1.78198 19.6921 1.78198H11.9998ZM15.2213 3.82552H16.5428L17.8413 7.91259H16.6874L16.3744 6.89082H15.2205L14.9328 7.91259H13.9228L15.2213 3.82552ZM15.8459 4.5067C15.769 4.77917 15.6828 5.11159 15.6051 5.31594L15.3898 6.20965H16.3028L16.0859 5.31526C15.9328 5.11158 15.8459 4.77917 15.8459 4.5067ZM4.30745 8.59377C2.99976 8.59377 1.99976 9.4793 1.99976 10.6373V14.7244C1.99976 15.8824 2.99976 16.7679 4.30745 16.7679V19.4926L7.38437 16.7679H11.9998C13.3074 16.7679 14.3074 15.8824 14.3074 14.7244V10.6373H11.9998C10.5382 10.6373 9.37976 9.75178 8.99514 8.59377H4.30745ZM7.84129 10.5733C9.14899 10.5733 9.76437 11.5269 9.76437 12.6168C9.76437 13.5705 9.39437 14.1754 8.77899 14.4478C9.08668 14.5841 9.45129 14.6563 9.83591 14.7244L9.54822 15.4056C9.00976 15.2693 8.45129 15.0568 7.91283 14.8518C7.83591 14.7836 7.70129 14.7884 7.62437 14.7884C6.70129 14.7203 5.84591 14.0432 5.84591 12.6808C5.84591 11.5228 6.61052 10.5733 7.84129 10.5733ZM7.84129 11.3185C7.22591 11.3185 6.92745 11.9315 6.92745 12.6808C6.92745 13.4983 7.22591 14.0432 7.84129 14.0432C8.45668 14.0432 8.77822 13.4301 8.77822 12.6808C8.77822 11.9315 8.45668 11.3185 7.84129 11.3185Z" fill="#55AB60"/>
</svg>
