<svg width="24" height="22" viewBox="0 0 24 22" fill="none" xmlns="http://www.w3.org/2000/svg">
<path d="M18.3637 7.50903H5.27283V6.05997H18.3637V7.50903ZM16.7274 3.16187H6.90919V4.61092H16.7274V3.16187Z" fill="#55AB60"/>
<path d="M10.4356 17.0003L7.7356 14.6093L8.88105 13.595L10.4356 14.9716L14.772 11.1316L15.9174 12.1459L10.4356 17.0003Z" fill="#55AB60"/>
<path d="M19.9998 8.95801H3.63612C3.20213 8.95801 2.78591 9.11068 2.47904 9.38243C2.17216 9.65418 1.99976 10.0227 1.99976 10.4071L1.99976 17.6523C1.99976 18.0366 2.17216 18.4052 2.47904 18.677C2.78591 18.9487 3.20213 19.1014 3.63612 19.1014H19.9998C20.4337 19.1014 20.85 18.9487 21.1568 18.677C21.4637 18.4052 21.6361 18.0366 21.6361 17.6523V10.4071C21.6361 10.0227 21.4637 9.65418 21.1568 9.38243C20.85 9.11068 20.4337 8.95801 19.9998 8.95801ZM19.9998 17.6523H3.63612V10.4071H19.9998V17.6523Z" fill="#55AB60"/>
</svg>
