<svg width="20" height="20" viewBox="0 0 20 20" fill="none" xmlns="http://www.w3.org/2000/svg">
<path d="M9.76864 4.63417L4.07025 9.30083V15.8333H8.14052V12.5H11.3967V15.8333H15.467V9.70167C15.4671 9.57669 15.4397 9.45331 15.3868 9.34065C15.334 9.22799 15.2571 9.12894 15.1618 9.05083L9.76864 4.63417ZM9.76864 2.5L16.1785 7.75C16.4643 7.98407 16.6951 8.28091 16.8538 8.61859C17.0124 8.95626 17.0949 9.32613 17.0951 9.70083V15.8333C17.0951 16.2754 16.9236 16.6993 16.6183 17.0118C16.3129 17.3244 15.8988 17.5 15.467 17.5H4.07025C3.63845 17.5 3.22433 17.3244 2.919 17.0118C2.61367 16.6993 2.44214 16.2754 2.44214 15.8333V9.30083C2.44217 9.05103 2.49705 8.80442 2.60273 8.57926C2.70841 8.35409 2.86219 8.15613 3.05268 8L9.76864 2.5Z" fill="black"/>
</svg>
