<svg width="24" height="23" viewBox="0 0 24 23" fill="none" xmlns="http://www.w3.org/2000/svg">
<path d="M14.2495 14.2736V15.934C14.2495 16.3744 14.052 16.7967 13.7003 17.1081C13.3487 17.4195 12.8718 17.5944 12.3745 17.5944H4.87441C4.37712 17.5944 3.90021 17.4195 3.54857 17.1081C3.19694 16.7967 2.99939 16.3744 2.99939 15.934V5.97167C2.99939 5.53131 3.19694 5.10898 3.54857 4.7976C3.90021 4.48621 4.37712 4.31128 4.87441 4.31128H11.9995C13.035 4.31128 14.2495 5.05472 14.2495 5.97167V7.63207" stroke="#55AB60" stroke-width="1.5" stroke-linecap="round" stroke-linejoin="round"/>
<path d="M17.2496 14.2737L20.9997 10.9529L17.2496 7.63208" stroke="#55AB60" stroke-width="1.5" stroke-linecap="round" stroke-linejoin="round"/>
<path d="M8.24963 10.9529H20.2498" stroke="#55AB60" stroke-width="1.5" stroke-linecap="round" stroke-linejoin="round"/>
</svg>
