<svg width="26" height="27" viewBox="0 0 26 27" fill="none" xmlns="http://www.w3.org/2000/svg">
<path fill-rule="evenodd" clip-rule="evenodd" d="M13.0005 25.8141C8.14621 25.8141 4 25.1153 4 22.3173C4 19.5193 8.1156 16.9351 13.0005 16.9351C17.8548 16.9351 22 19.4943 22 22.2923C22 25.0903 17.8802 25.8141 13.0005 25.8141Z" stroke="white" stroke-width="2" stroke-linecap="round" stroke-linejoin="round"/>
<path fill-rule="evenodd" clip-rule="evenodd" d="M12.9995 13.5436C14.5846 13.5382 16.1028 12.9115 17.2208 11.801C18.3387 10.6905 18.9651 9.18691 18.9624 7.62043C18.9597 6.05395 18.328 4.55255 17.2062 3.44583C16.0844 2.33911 14.5641 1.71753 12.9789 1.71753C11.3938 1.71753 9.87344 2.33911 8.75162 3.44583C7.6298 4.55255 6.99816 6.05395 6.99544 7.62043C6.99271 9.18691 7.61911 10.6905 8.73707 11.801C9.85503 12.9115 11.3732 13.5382 12.9583 13.5436H12.9995Z" stroke="white" stroke-width="2" stroke-linecap="round" stroke-linejoin="round"/>
</svg>
