<svg width="24" height="22" viewBox="0 0 24 22" fill="none" xmlns="http://www.w3.org/2000/svg">
<path d="M19.1983 9.63181C19.1983 7.85184 18.4398 6.14477 17.0895 4.88614C15.7392 3.6275 13.9079 2.92041 11.9983 2.92041C10.0888 2.92041 8.25743 3.6275 6.90717 4.88614C5.55691 6.14477 4.79834 7.85184 4.79834 9.63181" stroke="#55AB60" stroke-width="1.5" stroke-linecap="round" stroke-linejoin="round"/>
<path d="M2.99939 13.355V11.7812C2.99945 11.407 3.13367 11.0436 3.38072 10.7487C3.62778 10.4538 3.97348 10.2444 4.36289 10.1536L5.92889 9.78787C6.00846 9.7694 6.09151 9.76806 6.17172 9.78396C6.25193 9.79986 6.3272 9.83258 6.39183 9.87964C6.45645 9.9267 6.50873 9.98686 6.54469 10.0556C6.58065 10.1243 6.59936 10.1997 6.59939 10.2761V14.8592C6.59953 14.9358 6.58091 15.0114 6.54496 15.0803C6.509 15.1492 6.45666 15.2095 6.3919 15.2567C6.32715 15.3038 6.25171 15.3366 6.17131 15.3525C6.09092 15.3683 6.0077 15.3669 5.92799 15.3483L4.36199 14.9833C3.97275 14.8924 3.62725 14.6829 3.38037 14.388C3.13349 14.0932 2.9994 13.7299 2.99939 13.3558V13.355Z" stroke="#55AB60" stroke-width="1.5"/>
<path d="M20.9995 13.355V11.7812C20.9995 11.407 20.8653 11.0436 20.6182 10.7487C20.3712 10.4538 20.0254 10.2444 19.636 10.1536L18.07 9.78787C17.9905 9.7694 17.9074 9.76806 17.8272 9.78396C17.747 9.79986 17.6717 9.83258 17.6071 9.87964C17.5425 9.9267 17.4902 9.98686 17.4542 10.0556C17.4183 10.1243 17.3996 10.1997 17.3995 10.2761V14.8592C17.3994 14.9357 17.418 15.0112 17.4539 15.08C17.4898 15.1488 17.5421 15.2091 17.6067 15.2562C17.6714 15.3034 17.7467 15.3362 17.827 15.3521C17.9073 15.3681 17.9904 15.3668 18.07 15.3483L19.636 14.9833C20.0254 14.8926 20.3712 14.6831 20.6182 14.3883C20.8653 14.0934 20.9995 13.73 20.9995 13.3558V13.355Z" stroke="#55AB60" stroke-width="1.5"/>
<path d="M19.199 15.5044V15.9239C19.199 16.3689 19.0094 16.7956 18.6718 17.1103C18.3342 17.4249 17.8764 17.6017 17.399 17.6017H14.249" stroke="#55AB60" stroke-width="1.5"/>
<path d="M13.3492 18.86H10.6492C10.2912 18.86 9.94777 18.7275 9.6946 18.4915C9.44143 18.2555 9.29919 17.9354 9.29919 17.6017C9.29919 17.2679 9.44143 16.9478 9.6946 16.7118C9.94777 16.4758 10.2912 16.3433 10.6492 16.3433H13.3492C13.7072 16.3433 14.0506 16.4758 14.3038 16.7118C14.557 16.9478 14.6992 17.2679 14.6992 17.6017C14.6992 17.9354 14.557 18.2555 14.3038 18.4915C14.0506 18.7275 13.7072 18.86 13.3492 18.86Z" stroke="#55AB60" stroke-width="1.5"/>
</svg>
