<svg width="24" height="24" viewBox="0 0 24 24" fill="none" xmlns="http://www.w3.org/2000/svg">
<g clip-path="url(#clip0_102_869)">
<path d="M17.1284 14.9392H14.3969V13.8741C15.3301 13.3018 16.0438 12.4061 16.3805 11.3445H17.0109C18.4093 11.3445 19.5469 10.2068 19.5469 8.80852C19.5469 8.0377 19.2008 7.34658 18.6562 6.88106V6.65625C18.6562 2.98598 15.6703 0 12 0C8.32973 0 5.34375 2.98598 5.34375 6.65625V6.88111C4.79925 7.34662 4.45312 8.0377 4.45312 8.80856C4.45312 10.2069 5.59073 11.3445 6.98906 11.3445H7.61948C7.95614 12.4061 8.66991 13.3018 9.60309 13.8741V14.9393H6.87164C3.75464 14.9392 1.21875 17.4751 1.21875 20.5921V23.5312C1.21875 23.7901 1.42861 24 1.6875 24H4.78997C5.04886 24 5.25872 23.7901 5.25872 23.5312C5.25872 23.2724 5.04886 23.0625 4.78997 23.0625H2.15625V20.5921C2.15625 17.992 4.27153 15.8767 6.87164 15.8767H7.09664L9.88373 19.5174C9.96581 19.6247 10.0902 19.6913 10.225 19.7002C10.2354 19.7009 10.2457 19.7012 10.256 19.7012C10.3799 19.7012 10.4992 19.6521 10.5874 19.5639L11.5312 18.6201V23.0625H9.00872C8.74983 23.0625 8.53997 23.2724 8.53997 23.5312C8.53997 23.7901 8.74983 24 9.00872 24H22.3125C22.5714 24 22.7812 23.7901 22.7812 23.5312V20.5921C22.7812 17.4751 20.2454 14.9392 17.1284 14.9392ZM14.2746 15.8767H15.7227L13.6972 18.5226L12.6629 17.4884L14.2746 15.8767ZM13.6213 4.899C13.438 4.71614 13.1412 4.71647 12.9584 4.89984L12.3335 5.52633C11.6335 6.22805 10.7023 6.61448 9.71124 6.61448H8.34478C8.36738 4.61766 9.99797 3 12 3C14.002 3 15.6326 4.61766 15.6552 6.61444H14.842C14.2471 6.61444 13.6908 6.31252 13.3647 5.82005L13.6222 5.56191C13.805 5.37862 13.8046 5.08181 13.6213 4.899ZM17.0109 10.407H16.5938V7.21012H17.0109C17.8923 7.21012 18.6094 7.92722 18.6094 8.80861C18.6094 9.69 17.8923 10.407 17.0109 10.407ZM12 0.9375C15.058 0.9375 17.5629 3.35011 17.7117 6.37186C17.489 6.30769 17.254 6.27262 17.0109 6.27262H16.5776C16.382 3.91847 14.4038 2.0625 12 2.0625C9.5962 2.0625 7.61798 3.91847 7.42242 6.27258H6.98906C6.74597 6.27258 6.51108 6.30769 6.28833 6.37181C6.43706 3.35011 8.94202 0.9375 12 0.9375ZM7.40625 10.407H6.98906C6.10767 10.407 5.39062 9.68995 5.39062 8.80856C5.39062 7.92717 6.10767 7.21008 6.98906 7.21008H7.40625V10.407ZM8.34375 9.96234V7.55194H9.71124C10.8097 7.55194 11.8493 7.17286 12.6818 6.47695C13.1896 7.14698 13.99 7.55194 14.842 7.55194H15.6562V9.96234C15.6562 10.2158 15.6301 10.4633 15.5806 10.7023H13.6688C13.4753 10.1567 12.9543 9.76477 12.3432 9.76477H11.9682C11.1928 9.76477 10.562 10.3956 10.562 11.171C10.562 11.9464 11.1928 12.5773 11.9682 12.5773H12.3432C12.9543 12.5773 13.4753 12.1853 13.6688 11.6398H15.2455C14.6359 12.8102 13.4104 13.612 12 13.612C9.98395 13.6121 8.34375 11.9748 8.34375 9.96234ZM12.812 11.171C12.812 11.4295 12.6017 11.6398 12.3433 11.6398H11.9683C11.7098 11.6398 11.4995 11.4295 11.4995 11.171C11.4995 10.9125 11.7098 10.7023 11.9683 10.7023H12.3433C12.6017 10.7023 12.812 10.9126 12.812 11.171ZM12 14.5496C12.51 14.5496 13.0007 14.466 13.4594 14.3122V15.3661L12 16.8255L10.5406 15.366V14.3122C10.9993 14.466 11.49 14.5496 12 14.5496ZM10.3028 18.5226L8.27733 15.8767H9.72539L11.3371 17.4884L10.3028 18.5226ZM21.8438 23.0625H12.4688V18.6201L13.4126 19.564C13.5008 19.6522 13.6202 19.7013 13.7441 19.7013C13.7543 19.7013 13.7647 19.701 13.775 19.7003C13.9098 19.6914 14.0342 19.6248 14.1163 19.5175L16.9034 15.8768H17.1284C19.7285 15.8767 21.8438 17.992 21.8438 20.5921V23.0625Z" fill="#55AB60"/>
<path d="M18.5474 20.5312H16.2975C16.0386 20.5312 15.8287 20.7412 15.8287 21C15.8287 21.2588 16.0386 21.4688 16.2975 21.4688H18.5474C18.8063 21.4688 19.0162 21.2588 19.0162 21C19.0162 20.7412 18.8063 20.5312 18.5474 20.5312Z" fill="#55AB60"/>
<path d="M6.8996 23.0625C6.77585 23.0625 6.65538 23.1126 6.56819 23.1998C6.48053 23.287 6.43085 23.408 6.43085 23.5312C6.43085 23.6545 6.48053 23.7755 6.56819 23.8626C6.65491 23.9498 6.77585 24 6.8996 24C7.02288 24 7.14335 23.9498 7.231 23.8626C7.31819 23.7755 7.36835 23.6545 7.36835 23.5312C7.36835 23.408 7.31819 23.287 7.231 23.1998C7.14335 23.1126 7.02288 23.0625 6.8996 23.0625Z" fill="#55AB60"/>
</g>
<defs>
<clipPath id="clip0_102_869">
<rect width="24" height="24" fill="white"/>
</clipPath>
</defs>
</svg>
