<svg width="24" height="23" viewBox="0 0 24 23" fill="none" xmlns="http://www.w3.org/2000/svg">
<path d="M11.9414 20.2399L5.91567 13.947C5.83194 13.8525 5.74908 13.7574 5.66709 13.6617C4.63779 12.461 4.08174 10.9945 4.08424 9.48705C4.08424 7.64174 4.91204 5.87201 6.38554 4.56718C7.85904 3.26234 9.85754 2.5293 11.9414 2.5293C14.0252 2.5293 16.0237 3.26234 17.4972 4.56718C18.9707 5.87201 19.7985 7.64174 19.7985 9.48705C19.801 10.9938 19.2452 12.4597 18.2164 13.6598L18.2157 13.6617C18.2157 13.6617 18.0014 13.9109 17.9692 13.9444L11.9414 20.2399ZM6.80709 12.8995C6.80852 12.8995 6.97424 13.0943 7.01209 13.1361L11.9414 18.2842L16.8771 13.1291C16.9085 13.0943 17.0757 12.8983 17.0764 12.8976C17.9172 11.9166 18.3716 10.7186 18.37 9.48705C18.37 7.97725 17.6927 6.52929 16.4871 5.4617C15.2815 4.39411 13.6463 3.79434 11.9414 3.79434C10.2364 3.79434 8.60128 4.39411 7.39569 5.4617C6.1901 6.52929 5.51281 7.97725 5.51281 9.48705C5.51131 10.7194 5.96622 11.9181 6.80781 12.8995H6.80709Z" fill="#55AB60"/>
<path d="M15.5138 12.6497H14.0853V7.58951H9.79954V12.6497H8.37097V7.58951C8.37135 7.2541 8.52198 6.93253 8.78981 6.69536C9.05764 6.45819 9.42078 6.3248 9.79954 6.32446H14.0853C14.464 6.3248 14.8272 6.45819 15.095 6.69536C15.3628 6.93253 15.5135 7.2541 15.5138 7.58951V12.6497Z" fill="#55AB60"/>
<path d="M11.2275 11.3845H12.6561V12.6496H11.2275V11.3845Z" fill="#55AB60"/>
<path d="M11.2275 8.85449H12.6561V10.1195H11.2275V8.85449Z" fill="#55AB60"/>
</svg>
