<svg width="26" height="27" viewBox="0 0 26 27" fill="none" xmlns="http://www.w3.org/2000/svg">
<path d="M20 5.5L5 7L4 10L5.5 18.5L14.5 21L23 18.5L24 9.5L20 5.5Z" fill="white"/>
<path d="M4.68494 6.69032C17.5559 4.93423 20.7279 5.14964 22.7269 7.43741C24.7259 9.72517 24.259 17.2743 21.921 19.3743C19.583 21.4743 9.43695 21.6739 6.22095 19.3743C2.82095 16.9433 4.79496 9.46428 4.68396 4.93322C4.75096 2.3984 2.01294 1.9873 2.01294 1.9873" stroke="#55AB60" stroke-width="2" stroke-linecap="round" stroke-linejoin="round"/>
<path d="M15.917 12.1512H19.309H15.917Z" fill="white"/>
<path fill-rule="evenodd" clip-rule="evenodd" d="M6.70899 24.3896C6.84071 24.3898 6.96945 24.4286 7.07886 24.501C7.18827 24.5735 7.27345 24.6764 7.32367 24.7968C7.3739 24.9171 7.38692 25.0495 7.36102 25.1771C7.33513 25.3047 7.2715 25.4219 7.17822 25.5138C7.08494 25.6057 6.96621 25.6683 6.83698 25.6935C6.70775 25.7187 6.57383 25.7054 6.45221 25.6554C6.33059 25.6054 6.2267 25.5209 6.15369 25.4126C6.08067 25.3042 6.0418 25.1769 6.04199 25.0467C6.04212 24.9603 6.05949 24.8747 6.09308 24.7949C6.12667 24.7151 6.17586 24.6427 6.23779 24.5816C6.29973 24.5206 6.37319 24.4722 6.45404 24.4393C6.53489 24.4063 6.62152 24.3895 6.70899 24.3896Z" fill="white"/>
<path fill-rule="evenodd" clip-rule="evenodd" d="M20.479 24.3896C20.6108 24.3896 20.7396 24.4282 20.8491 24.5006C20.9587 24.5729 21.044 24.6758 21.0944 24.7961C21.1447 24.9164 21.1579 25.0488 21.1321 25.1765C21.1064 25.3042 21.0428 25.4215 20.9496 25.5135C20.8563 25.6055 20.7375 25.6681 20.6083 25.6934C20.479 25.7187 20.3451 25.7055 20.2235 25.6555C20.1018 25.6056 19.9978 25.521 19.9247 25.4127C19.8517 25.3043 19.8128 25.177 19.813 25.0467C19.8133 24.8724 19.8836 24.7052 20.0084 24.582C20.1333 24.4588 20.3025 24.3896 20.479 24.3896Z" fill="white"/>
<path d="M15.917 12.1512H19.309M6.70899 24.3896C6.84071 24.3898 6.96945 24.4286 7.07886 24.5011C7.18827 24.5735 7.27345 24.6764 7.32367 24.7968C7.3739 24.9171 7.38692 25.0495 7.36102 25.1771C7.33513 25.3047 7.2715 25.4219 7.17822 25.5138C7.08494 25.6057 6.96621 25.6683 6.83698 25.6935C6.70775 25.7187 6.57383 25.7054 6.45221 25.6554C6.33059 25.6054 6.2267 25.5209 6.15369 25.4126C6.08067 25.3042 6.0418 25.1769 6.04199 25.0467C6.04212 24.9603 6.05949 24.8747 6.09308 24.7949C6.12667 24.7151 6.17586 24.6427 6.23779 24.5816C6.29973 24.5206 6.37319 24.4722 6.45404 24.4393C6.53489 24.4063 6.62152 24.3895 6.70899 24.3896ZM20.479 24.3896C20.6108 24.3896 20.7396 24.4282 20.8491 24.5006C20.9587 24.5729 21.044 24.6758 21.0944 24.7961C21.1447 24.9164 21.1579 25.0488 21.1321 25.1765C21.1064 25.3042 21.0428 25.4215 20.9496 25.5135C20.8563 25.6055 20.7375 25.6681 20.6083 25.6934C20.479 25.7187 20.3451 25.7055 20.2235 25.6555C20.1018 25.6056 19.9978 25.521 19.9247 25.4127C19.8517 25.3043 19.8128 25.177 19.813 25.0467C19.8133 24.8724 19.8836 24.7052 20.0084 24.582C20.1333 24.4588 20.3025 24.3896 20.479 24.3896Z" stroke="#55AB60" stroke-width="2" stroke-linecap="round" stroke-linejoin="round"/>
</svg>
