<svg width="26" height="27" viewBox="0 0 26 27" fill="none" xmlns="http://www.w3.org/2000/svg">
<path d="M4.68494 6.41969C17.5559 4.6636 20.7279 4.87901 22.7269 7.16678C24.7259 9.45454 24.259 17.0037 21.921 19.1037C19.583 21.2037 9.43695 21.4033 6.22095 19.1037C2.82095 16.6726 4.79496 9.19365 4.68396 4.66259C4.75096 2.12777 2.01294 1.71667 2.01294 1.71667" stroke="white" stroke-width="2" stroke-linecap="round" stroke-linejoin="round"/>
<path d="M15.917 11.8806H19.309H15.917Z" fill="#60C370"/>
<path fill-rule="evenodd" clip-rule="evenodd" d="M6.70899 24.119C6.84071 24.1192 6.96945 24.1579 7.07886 24.2304C7.18827 24.3029 7.27345 24.4058 7.32367 24.5262C7.3739 24.6465 7.38692 24.7789 7.36102 24.9065C7.33513 25.0341 7.2715 25.1513 7.17822 25.2432C7.08494 25.3351 6.96621 25.3976 6.83698 25.4228C6.70775 25.448 6.57383 25.4348 6.45221 25.3848C6.33059 25.3348 6.2267 25.2503 6.15369 25.1419C6.08067 25.0336 6.0418 24.9063 6.04199 24.7761C6.04212 24.6897 6.05949 24.6041 6.09308 24.5243C6.12667 24.4445 6.17586 24.372 6.23779 24.311C6.29973 24.25 6.37319 24.2016 6.45404 24.1687C6.53489 24.1357 6.62152 24.1188 6.70899 24.119Z" fill="#60C370"/>
<path fill-rule="evenodd" clip-rule="evenodd" d="M20.479 24.119C20.6108 24.119 20.7396 24.1576 20.8491 24.2299C20.9587 24.3023 21.044 24.4051 21.0944 24.5255C21.1447 24.6458 21.1579 24.7782 21.1321 24.9059C21.1064 25.0336 21.0428 25.1508 20.9496 25.2428C20.8563 25.3348 20.7375 25.3975 20.6083 25.4227C20.479 25.448 20.3451 25.4349 20.2235 25.3849C20.1018 25.3349 19.9978 25.2504 19.9247 25.1421C19.8517 25.0337 19.8128 24.9063 19.813 24.7761C19.8133 24.6017 19.8836 24.4346 20.0084 24.3114C20.1333 24.1881 20.3025 24.119 20.479 24.119Z" fill="#60C370"/>
<path d="M15.917 11.8806H19.309M6.70899 24.119C6.84071 24.1191 6.96945 24.1579 7.07886 24.2304C7.18827 24.3029 7.27345 24.4058 7.32367 24.5262C7.3739 24.6465 7.38692 24.7789 7.36102 24.9065C7.33513 25.0341 7.2715 25.1513 7.17822 25.2432C7.08494 25.3351 6.96621 25.3976 6.83698 25.4228C6.70775 25.448 6.57383 25.4348 6.45221 25.3848C6.33059 25.3348 6.2267 25.2503 6.15369 25.1419C6.08067 25.0336 6.0418 24.9063 6.04199 24.7761C6.04212 24.6897 6.05949 24.6041 6.09308 24.5243C6.12667 24.4445 6.17586 24.372 6.23779 24.311C6.29973 24.25 6.37319 24.2016 6.45404 24.1687C6.53489 24.1357 6.62152 24.1188 6.70899 24.119ZM20.479 24.119C20.6108 24.119 20.7396 24.1576 20.8491 24.2299C20.9587 24.3023 21.044 24.4051 21.0944 24.5255C21.1447 24.6458 21.1579 24.7782 21.1321 24.9059C21.1064 25.0336 21.0428 25.1508 20.9496 25.2428C20.8563 25.3348 20.7375 25.3975 20.6083 25.4227C20.479 25.448 20.3451 25.4349 20.2235 25.3849C20.1018 25.3349 19.9978 25.2504 19.9247 25.1421C19.8517 25.0337 19.8128 24.9063 19.813 24.7761C19.8133 24.6017 19.8836 24.4346 20.0084 24.3114C20.1333 24.1881 20.3025 24.119 20.479 24.119Z" stroke="white" stroke-width="2" stroke-linecap="round" stroke-linejoin="round"/>
</svg>
