<svg width="12" height="12" viewBox="0 0 12 12" fill="none" xmlns="http://www.w3.org/2000/svg">
<path d="M8.51289 6.11152L11.1359 3.54702C11.451 3.23213 11.6263 2.80844 11.6239 2.36791C11.6214 1.92738 11.4413 1.50558 11.1227 1.19408C10.8041 0.882573 10.3727 0.706509 9.92211 0.704102C9.47154 0.701695 9.03817 0.873139 8.7161 1.18122L6.09312 3.7457L3.47013 1.18122C3.31189 1.02308 3.12313 0.897205 2.91479 0.810868C2.70644 0.724532 2.48266 0.679457 2.25638 0.678248C2.0301 0.677039 1.80582 0.719721 1.59652 0.803826C1.38723 0.887931 1.19707 1.01179 1.03707 1.16822C0.87706 1.32466 0.75038 1.51057 0.664357 1.7152C0.578333 1.91983 0.534678 2.13911 0.535914 2.36034C0.537151 2.58157 0.583255 2.80037 0.67156 3.00407C0.759866 3.20776 0.888619 3.39231 1.05036 3.54702L3.67335 6.11152L1.05036 8.67599C0.735255 8.99088 0.559896 9.41458 0.562358 9.85511C0.56482 10.2956 0.744905 10.7174 1.06351 11.0289C1.38213 11.3405 1.81355 11.5165 2.26412 11.5189C2.7147 11.5213 3.14806 11.3499 3.47013 11.0418L6.09312 8.47732L8.7161 11.0418C9.03817 11.3499 9.47154 11.5213 9.92211 11.5189C10.3727 11.5165 10.8041 11.3405 11.1227 11.0289C11.4413 10.7174 11.6214 10.2956 11.6239 9.85511C11.6263 9.41458 11.451 8.99088 11.1359 8.67599L8.51289 6.11152Z" fill="#BCB14C"/>
</svg>
