<svg width="24" height="22" viewBox="0 0 24 22" fill="none" xmlns="http://www.w3.org/2000/svg">
<path d="M19.1983 9.63192C19.1983 7.85195 18.4397 6.14487 17.0894 4.88624C15.7392 3.62761 13.9078 2.92052 11.9983 2.92052C10.0887 2.92052 8.25737 3.62761 6.90711 4.88624C5.55685 6.14487 4.79828 7.85195 4.79828 9.63192" stroke="#55AB60" stroke-width="1.5" stroke-linecap="round" stroke-linejoin="round"/>
<path d="M2.99939 13.3551V11.7812C2.99945 11.4071 3.13367 11.0437 3.38072 10.7488C3.62778 10.4539 3.97348 10.2444 4.36289 10.1537L5.92889 9.78795C6.00846 9.76947 6.09151 9.76814 6.17172 9.78404C6.25193 9.79994 6.3272 9.83266 6.39183 9.87972C6.45645 9.92677 6.50873 9.98694 6.54469 10.0556C6.58065 10.1243 6.59936 10.1998 6.59939 10.2762V14.8593C6.59953 14.9359 6.58091 15.0115 6.54496 15.0804C6.509 15.1492 6.45666 15.2096 6.3919 15.2567C6.32715 15.3039 6.25171 15.3367 6.17131 15.3525C6.09092 15.3684 6.0077 15.367 5.92799 15.3483L4.36199 14.9834C3.97275 14.8925 3.62725 14.683 3.38037 14.3881C3.13349 14.0932 2.9994 13.7299 2.99939 13.3559V13.3551Z" stroke="#55AB60" stroke-width="1.5"/>
<path d="M20.9995 13.355V11.7812C20.9995 11.4071 20.8653 11.0437 20.6182 10.7488C20.3712 10.4539 20.0254 10.2444 19.636 10.1537L18.07 9.78793C17.9905 9.76946 17.9074 9.76812 17.8272 9.78402C17.747 9.79992 17.6717 9.83264 17.6071 9.8797C17.5425 9.92676 17.4902 9.98692 17.4542 10.0556C17.4183 10.1243 17.3996 10.1997 17.3995 10.2762V14.8592C17.3994 14.9357 17.418 15.0113 17.4539 15.0801C17.4898 15.1489 17.5421 15.2091 17.6067 15.2563C17.6714 15.3035 17.7467 15.3362 17.827 15.3522C17.9073 15.3681 17.9904 15.3668 18.07 15.3483L19.636 14.9834C20.0254 14.8927 20.3712 14.6832 20.6182 14.3883C20.8653 14.0934 20.9995 13.73 20.9995 13.3559V13.355Z" stroke="#55AB60" stroke-width="1.5"/>
<path d="M19.199 15.5044V15.9238C19.199 16.3688 19.0094 16.7956 18.6718 17.1103C18.3342 17.4249 17.8764 17.6017 17.399 17.6017H14.249" stroke="#55AB60" stroke-width="1.5"/>
<path d="M13.3492 18.8601H10.6492C10.2912 18.8601 9.94777 18.7275 9.6946 18.4915C9.44143 18.2555 9.29919 17.9355 9.29919 17.6017C9.29919 17.268 9.44143 16.9479 9.6946 16.7119C9.94777 16.4759 10.2912 16.3433 10.6492 16.3433H13.3492C13.7072 16.3433 14.0506 16.4759 14.3038 16.7119C14.557 16.9479 14.6992 17.268 14.6992 17.6017C14.6992 17.9355 14.557 18.2555 14.3038 18.4915C14.0506 18.7275 13.7072 18.8601 13.3492 18.8601Z" stroke="#55AB60" stroke-width="1.5"/>
</svg>
