<svg width="12" height="11" viewBox="0 0 12 11" fill="none" xmlns="http://www.w3.org/2000/svg">
<path d="M8.51117 5.45281L11.1342 2.9358C11.4493 2.62674 11.6246 2.21089 11.6222 1.77852C11.6197 1.34615 11.4396 0.932158 11.121 0.626421C10.8024 0.320684 10.371 0.14788 9.9204 0.145517C9.46982 0.143154 9.03646 0.311424 8.71438 0.613802L6.0914 3.1308L3.46842 0.613802C3.31017 0.458591 3.12142 0.335044 2.91308 0.250307C2.70473 0.165569 2.48095 0.121328 2.25467 0.120142C2.02839 0.118955 1.80411 0.160847 1.59481 0.243395C1.38552 0.325942 1.19536 0.447504 1.03536 0.601045C0.875351 0.754587 0.748671 0.937057 0.662648 1.1379C0.576624 1.33873 0.532969 1.55395 0.534205 1.77109C0.535442 1.98823 0.581546 2.20297 0.669851 2.40289C0.758157 2.60282 0.88691 2.78395 1.04866 2.9358L3.67163 5.45281L1.04866 7.9698C0.733546 8.27886 0.558187 8.69471 0.560649 9.12708C0.563111 9.55946 0.743195 9.97345 1.06181 10.2792C1.38042 10.5849 1.81184 10.7577 2.26241 10.7601C2.71299 10.7625 3.14635 10.5942 3.46842 10.2918L6.0914 7.7748L8.71438 10.2918C9.03646 10.5942 9.46982 10.7625 9.9204 10.7601C10.371 10.7577 10.8024 10.5849 11.121 10.2792C11.4396 9.97345 11.6197 9.55946 11.6222 9.12708C11.6246 8.69471 11.4493 8.27886 11.1342 7.9698L8.51117 5.45281Z" fill="#A4E0A4"/>
</svg>
