<svg width="24" height="24" viewBox="0 0 24 24" fill="none" xmlns="http://www.w3.org/2000/svg">
<path d="M11.5 0C7.357 0 4 3.34559 4 7.48968C4 14.6552 11.5 24 11.5 24C11.5 24 19 14.6537 19 7.48968C19 3.34709 15.643 0 11.5 0ZM11.5 11.6338C10.4259 11.6338 9.39574 11.2068 8.63622 10.4468C7.8767 9.68682 7.45 8.65604 7.45 7.58124C7.45 6.50644 7.8767 5.47566 8.63622 4.71566C9.39574 3.95567 10.4259 3.52871 11.5 3.52871C12.5741 3.52871 13.6043 3.95567 14.3638 4.71566C15.1233 5.47566 15.55 6.50644 15.55 7.58124C15.55 8.65604 15.1233 9.68682 14.3638 10.4468C13.6043 11.2068 12.5741 11.6338 11.5 11.6338Z" fill="#55AB60"/>
</svg>
