<svg width="26" height="26" viewBox="0 0 26 26" fill="none" xmlns="http://www.w3.org/2000/svg">
<path d="M14 1L5.5 2.5C2.5 1.5 -1.5 15.5 2.5 21C6.5 26.5 20.5 25.5 23.5 21C25.9 17.4 25.5 11.5 25 9L21.5 2.5L14 1Z" fill="white"/>
<path fill-rule="evenodd" clip-rule="evenodd" d="M1 12.847C1 21.7405 4.00065 24.7058 13 24.7058C21.9993 24.7058 25 21.7405 25 12.847C25 3.95351 21.9993 0.988159 13 0.988159C4.00065 0.988159 1 3.95351 1 12.847Z" stroke="#60C370" stroke-width="1.5" stroke-linecap="round" stroke-linejoin="round"/>
<path fill-rule="evenodd" clip-rule="evenodd" d="M8.71664 17.079L10.7586 10.6304L17.284 8.61245L15.242 15.0598L8.71664 17.079Z" stroke="#60C370" stroke-width="1.5" stroke-linecap="round" stroke-linejoin="round"/>
</svg>
