<svg width="24" height="24" viewBox="0 0 24 24" fill="none" xmlns="http://www.w3.org/2000/svg">
<path d="M0 10C0 4.47715 4.47715 0 10 0H14C19.5228 0 24 4.47715 24 10V14C24 19.5228 19.5228 24 14 24H10C4.47715 24 0 19.5228 0 14V10Z" fill="#55AB60"/>
<path d="M16.289 10.9264H13.0739V7.71094C13.0739 7.52239 12.999 7.34156 12.8657 7.20823C12.7324 7.0749 12.5515 7 12.363 7H11.6521C11.4636 7 11.2828 7.0749 11.1495 7.20823C11.0162 7.34156 10.9413 7.52239 10.9413 7.71094V10.9264H7.71087C7.52234 10.9264 7.34152 11.0013 7.20821 11.1347C7.0749 11.268 7 11.4488 7 11.6374V12.3483C7 12.5369 7.0749 12.7177 7.20821 12.851C7.34152 12.9844 7.52234 13.0593 7.71087 13.0593H10.9301V16.289C10.9301 16.4775 11.005 16.6584 11.1383 16.7917C11.2716 16.925 11.4524 16.9999 11.641 16.9999H12.3518C12.5404 16.9999 12.7212 16.925 12.8545 16.7917C12.9878 16.6584 13.0627 16.4775 13.0627 16.289V13.0704H16.289C16.4776 13.0704 16.6584 12.9955 16.7917 12.8622C16.925 12.7289 16.9999 12.5481 16.9999 12.3595V11.6486C17.0014 11.5543 16.9841 11.4606 16.949 11.3731C16.914 11.2855 16.8619 11.2058 16.7957 11.1386C16.7295 11.0714 16.6507 11.018 16.5637 10.9816C16.4767 10.9452 16.3833 10.9264 16.289 10.9264Z" fill="white"/>
</svg>
