<svg width="16" height="9" viewBox="0 0 16 9" fill="none" xmlns="http://www.w3.org/2000/svg">
<path d="M7.9945 6.28601L14.0506 0.329522C14.1565 0.224855 14.2825 0.141796 14.4212 0.0851203C14.5599 0.0284441 14.7087 -0.000732422 14.8589 -0.000732422C15.0091 -0.000732422 15.1579 0.0284441 15.2966 0.0851203C15.4353 0.141796 15.5613 0.224855 15.6672 0.329522C15.8804 0.541796 16 0.828067 16 1.12634C16 1.42462 15.8804 1.71089 15.6672 1.92316L8.80531 8.67155C8.59706 8.87568 8.31671 8.99297 8.02264 8.99902C7.72858 9.00507 7.44348 8.8994 7.22672 8.70402L0.31977 1.92808C0.112134 1.71591 -0.00264324 1.43224 4.62193e-05 1.13788C0.00273568 0.843523 0.122678 0.561919 0.334157 0.353447C0.545636 0.144975 0.831814 0.0262323 1.13133 0.0226793C1.43085 0.0191264 1.71986 0.131046 1.9364 0.334441L7.9945 6.28601Z" fill="#424242"/>
</svg>
