<svg width="18" height="18" viewBox="0 0 18 18" fill="none" xmlns="http://www.w3.org/2000/svg">
<path d="M9 0C4.02991 0 0 4.02991 0 9C0 13.9701 4.02991 18 9 18C13.9701 18 18 13.9701 18 9C18 4.02991 13.9701 0 9 0ZM12.8571 9.48214C12.8571 9.57054 12.7848 9.64286 12.6964 9.64286H9.64286V12.6964C9.64286 12.7848 9.57054 12.8571 9.48214 12.8571H8.51786C8.42946 12.8571 8.35714 12.7848 8.35714 12.6964V9.64286H5.30357C5.21518 9.64286 5.14286 9.57054 5.14286 9.48214V8.51786C5.14286 8.42946 5.21518 8.35714 5.30357 8.35714H8.35714V5.30357C8.35714 5.21518 8.42946 5.14286 8.51786 5.14286H9.48214C9.57054 5.14286 9.64286 5.21518 9.64286 5.30357V8.35714H12.6964C12.7848 8.35714 12.8571 8.42946 12.8571 8.51786V9.48214Z" fill="#55AB60"/>
</svg>
