<svg width="18" height="18" viewBox="0 0 18 18" fill="none" xmlns="http://www.w3.org/2000/svg">
<path d="M12.6981 8.35718H5.30525C5.21685 8.35718 5.14453 8.4295 5.14453 8.51789V9.48218C5.14453 9.57057 5.21685 9.64289 5.30525 9.64289H12.6981C12.7865 9.64289 12.8588 9.57057 12.8588 9.48218V8.51789C12.8588 8.4295 12.7865 8.35718 12.6981 8.35718Z" fill="#55AB60"/>
<path d="M9 0C4.02991 0 0 4.02991 0 9C0 13.9701 4.02991 18 9 18C13.9701 18 18 13.9701 18 9C18 4.02991 13.9701 0 9 0ZM9 16.4732C4.87366 16.4732 1.52679 13.1263 1.52679 9C1.52679 4.87366 4.87366 1.52679 9 1.52679C13.1263 1.52679 16.4732 4.87366 16.4732 9C16.4732 13.1263 13.1263 16.4732 9 16.4732Z" fill="#55AB60"/>
</svg>
