<svg width="25" height="24" viewBox="0 0 25 24" fill="none" xmlns="http://www.w3.org/2000/svg">
<path d="M18.2721 0.0344238H18.2118C17.0755 0.0399287 15.9585 0.325598 14.9618 0.865613C13.965 1.40563 13.12 2.18297 12.5029 3.12737C11.8857 2.18255 11.0401 1.40496 10.0428 0.864923C9.04555 0.324886 7.92796 0.0394457 6.79118 0.0344238H6.73088C4.94046 0.0509176 3.22899 0.766257 1.96858 2.02492C0.70816 3.28358 0.000697555 4.9838 0 6.75594C0.149284 9.60988 1.1486 12.3563 2.87206 14.6491C5.65486 18.1186 8.89271 21.2053 12.5 23.8275C16.1073 21.2053 19.3451 18.1186 22.1279 14.6491C23.8514 12.3563 24.8507 9.60988 25 6.75594C24.9993 4.9843 24.2923 3.28451 23.0325 2.02593C21.7727 0.767355 20.062 0.0516799 18.2721 0.0344238Z" fill="#FF3F3F"/>
</svg>
