<svg width="26" height="26" viewBox="0 0 26 26" fill="none" xmlns="http://www.w3.org/2000/svg">
<path d="M18 3.5L13 5L11.5 4L8 3.5L4 4L1 8V13.5L6.5 20L13 24L21 19L25 12.5L24 7L21 4L18 3.5Z" fill="white"/>
<path fill-rule="evenodd" clip-rule="evenodd" d="M1.46963 13.8426C0.114049 9.74635 1.69953 4.65353 6.14276 3.26936C8.47997 2.53937 11.3643 3.14831 13.0029 5.33584C14.548 3.06761 17.5156 2.54426 19.8502 3.26936C24.2922 4.65353 25.8866 9.74635 24.5322 13.8426C22.4224 20.3355 15.0609 23.7177 13.0029 23.7177C10.9461 23.7177 3.65019 20.4113 1.46963 13.8426Z" stroke="#55AB60" stroke-width="2" stroke-linecap="round" stroke-linejoin="round"/>
</svg>
