<svg width="24" height="22" viewBox="0 0 24 22" fill="none" xmlns="http://www.w3.org/2000/svg">
<path d="M11.9998 1.7822C10.6921 1.7822 9.69206 2.66773 9.69206 3.82573V7.91281C9.69206 9.07081 10.6921 9.95634 11.9998 9.95634H16.6151L19.6921 12.6811V9.95634C20.9998 9.95634 21.9998 9.07081 21.9998 7.91281V3.82573C21.9998 2.66773 20.9998 1.7822 19.6921 1.7822H11.9998ZM15.2213 3.82573H16.5428L17.8413 7.91281H16.6874L16.3744 6.89104H15.2205L14.9328 7.91281H13.9228L15.2213 3.82573ZM15.8459 4.50691C15.769 4.77938 15.6828 5.1118 15.6051 5.31615L15.3898 6.20986H16.3028L16.0859 5.31547C15.9328 5.1118 15.8459 4.77938 15.8459 4.50691ZM4.30745 8.59399C2.99976 8.59399 1.99976 9.47952 1.99976 10.6375V14.7246C1.99976 15.8826 2.99976 16.7681 4.30745 16.7681V19.4928L7.38437 16.7681H11.9998C13.3074 16.7681 14.3074 15.8826 14.3074 14.7246V10.6375H11.9998C10.5382 10.6375 9.37976 9.75199 8.99514 8.59399H4.30745ZM7.84129 10.5735C9.14899 10.5735 9.76437 11.5271 9.76437 12.617C9.76437 13.5707 9.39437 14.1756 8.77899 14.448C9.08668 14.5843 9.45129 14.6565 9.83591 14.7246L9.54822 15.4058C9.00976 15.2695 8.45129 15.057 7.91283 14.852C7.83591 14.7839 7.70129 14.7886 7.62437 14.7886C6.70129 14.7205 5.84591 14.0434 5.84591 12.6811C5.84591 11.5231 6.61052 10.5735 7.84129 10.5735ZM7.84129 11.3187C7.22591 11.3187 6.92745 11.9318 6.92745 12.6811C6.92745 13.4985 7.22591 14.0434 7.84129 14.0434C8.45668 14.0434 8.77822 13.4304 8.77822 12.6811C8.77822 11.9318 8.45668 11.3187 7.84129 11.3187Z" fill="#55AB60"/>
</svg>
