<svg width="33" height="34" viewBox="0 0 33 34" fill="none" xmlns="http://www.w3.org/2000/svg">
<g filter="url(#filter0_d_622_600)">
<path d="M22.2721 0.25H22.2118C21.0755 0.255784 19.9585 0.555963 18.9618 1.1234C17.965 1.69085 17.12 2.50766 16.5029 3.50003C15.8857 2.50723 15.0401 1.69014 14.0428 1.12268C13.0455 0.555214 11.928 0.255277 10.7912 0.25H10.7309C8.94071 0.267329 7.22947 1.01879 5.96909 2.34105C4.70872 3.6633 4.00108 5.44949 4 7.31136C4.14928 10.3103 5.1486 13.1961 6.87206 15.6054C9.65486 19.2511 12.8927 22.4946 16.5 25.25C20.1073 22.4946 23.3451 19.2511 26.1279 15.6054C27.8514 13.1961 28.8507 10.3103 29 7.31136C28.9989 5.45001 28.2917 3.66429 27.0319 2.34211C25.7722 1.01994 24.0617 0.26813 22.2721 0.25ZM24.7721 14.5685C22.3701 17.7445 19.5917 20.5919 16.5029 23.043C13.4136 20.5915 10.6343 17.7442 8.23088 14.5685C6.7189 12.4598 5.83302 9.93716 5.68235 7.31136C5.68154 5.91138 6.21311 4.56787 7.1611 3.57393C8.10909 2.57999 9.39656 2.01628 10.7426 2.00578H10.8015C11.667 2.00616 12.5179 2.23845 13.2721 2.68026C14.0101 3.11232 14.6368 3.72362 15.0985 4.46204C15.2521 4.70597 15.4616 4.90629 15.7082 5.04493C15.9548 5.18358 16.2307 5.25617 16.511 5.25617C16.7914 5.25617 17.0673 5.18358 17.3139 5.04493C17.5605 4.90629 17.77 4.70597 17.9235 4.46204C18.3868 3.72498 19.0131 3.11402 19.75 2.68026C20.5041 2.23845 21.355 2.00616 22.2206 2.00578H22.2721C23.6181 2.01628 24.9056 2.57999 25.8536 3.57393C26.8016 4.56787 27.3332 5.91138 27.3324 7.31136C27.1689 9.93639 26.2798 12.4564 24.7721 14.5685Z" fill="#EC5353"/>
</g>
<defs>
<filter id="filter0_d_622_600" x="0" y="0.25" width="33" height="33" filterUnits="userSpaceOnUse" color-interpolation-filters="sRGB">
<feFlood flood-opacity="0" result="BackgroundImageFix"/>
<feColorMatrix in="SourceAlpha" type="matrix" values="0 0 0 0 0 0 0 0 0 0 0 0 0 0 0 0 0 0 127 0" result="hardAlpha"/>
<feOffset dy="4"/>
<feGaussianBlur stdDeviation="2"/>
<feComposite in2="hardAlpha" operator="out"/>
<feColorMatrix type="matrix" values="0 0 0 0 0 0 0 0 0 0 0 0 0 0 0 0 0 0 0.1 0"/>
<feBlend mode="normal" in2="BackgroundImageFix" result="effect1_dropShadow_622_600"/>
<feBlend mode="normal" in="SourceGraphic" in2="effect1_dropShadow_622_600" result="shape"/>
</filter>
</defs>
</svg>
