<svg width="26" height="26" viewBox="0 0 26 26" fill="none" xmlns="http://www.w3.org/2000/svg">
<path fill-rule="evenodd" clip-rule="evenodd" d="M2.06192 14.7089C2.06192 8.58774 2.73992 9.01466 6.38992 5.68332C7.98992 4.41838 10.0029 2 12.1479 2C14.2929 2 17.2959 4.40553 18.9069 5.68332C22.5569 9.01565 23.2339 8.58774 23.2339 14.7089C23.2339 23.7176 21.0709 23.7176 12.6479 23.7176C4.22492 23.7176 2.06192 23.7176 2.06192 14.7089Z" stroke="#55AB60" stroke-width="2" stroke-linecap="round" stroke-linejoin="round"/>
<path d="M23.5 16C23.5 21.799 18.299 24 12.5 24C6.70101 24 2 21.799 2 16C2 10.201 6.70101 3 12.5 3C18.299 3 23.5 10.201 23.5 16Z" fill="white"/>
<path d="M10.0931 17.3435H15.9081M2.41406 14.7089C2.41406 8.58774 3.09207 9.01466 6.74207 5.68332C8.34207 4.41838 10.8241 1.97644 12.9691 1.97644C15.1141 1.97644 17.6481 4.40553 19.2591 5.68332C22.9091 9.01565 23.5861 8.58774 23.5861 14.7089C23.5861 23.7176 21.4231 23.7176 13.0001 23.7176C4.57706 23.7176 2.41406 23.7176 2.41406 14.7089Z" stroke="#55AB60" stroke-width="2" stroke-linecap="round" stroke-linejoin="round"/>
</svg>
