<svg width="24" height="23" viewBox="0 0 24 23" fill="none" xmlns="http://www.w3.org/2000/svg">
<path d="M14.2495 14.274V15.9343C14.2495 16.3747 14.052 16.797 13.7003 17.1084C13.3487 17.4198 12.8718 17.5947 12.3745 17.5947H4.87441C4.37712 17.5947 3.90021 17.4198 3.54857 17.1084C3.19694 16.797 2.99939 16.3747 2.99939 15.9343V5.97199C2.99939 5.53163 3.19694 5.1093 3.54857 4.79792C3.90021 4.48653 4.37712 4.3116 4.87441 4.3116H11.9995C13.035 4.3116 14.2495 5.05504 14.2495 5.97199V7.63239" stroke="#55AB60" stroke-width="1.5" stroke-linecap="round" stroke-linejoin="round"/>
<path d="M17.2496 14.274L20.9997 10.9532L17.2496 7.6324" stroke="#55AB60" stroke-width="1.5" stroke-linecap="round" stroke-linejoin="round"/>
<path d="M8.24963 10.9532H20.2498" stroke="#55AB60" stroke-width="1.5" stroke-linecap="round" stroke-linejoin="round"/>
</svg>
