<svg width="24" height="23" viewBox="0 0 24 23" fill="none" xmlns="http://www.w3.org/2000/svg">
<path d="M11.9414 20.24L5.91567 13.9471C5.83194 13.8526 5.74908 13.7575 5.66709 13.6618C4.63779 12.4611 4.08174 10.9946 4.08424 9.48715C4.08424 7.64184 4.91204 5.87211 6.38554 4.56728C7.85904 3.26244 9.85754 2.5294 11.9414 2.5294C14.0252 2.5294 16.0237 3.26244 17.4972 4.56728C18.9707 5.87211 19.7985 7.64184 19.7985 9.48715C19.801 10.9939 19.2452 12.4598 18.2164 13.6599L18.2157 13.6618C18.2157 13.6618 18.0014 13.911 17.9692 13.9445L11.9414 20.24ZM6.80709 12.8996C6.80852 12.8996 6.97424 13.0944 7.01209 13.1362L11.9414 18.2843L16.8771 13.1292C16.9085 13.0944 17.0757 12.8984 17.0764 12.8977C17.9172 11.9167 18.3716 10.7187 18.37 9.48715C18.37 7.97735 17.6927 6.52939 16.4871 5.4618C15.2815 4.39421 13.6463 3.79444 11.9414 3.79444C10.2364 3.79444 8.60128 4.39421 7.39569 5.4618C6.1901 6.52939 5.51281 7.97735 5.51281 9.48715C5.51131 10.7195 5.96622 11.9182 6.80781 12.8996H6.80709Z" fill="#55AB60"/>
<path d="M15.5138 12.6498H14.0853V7.58957H9.79954V12.6498H8.37097V7.58957C8.37135 7.25416 8.52198 6.93259 8.78981 6.69542C9.05764 6.45825 9.42078 6.32486 9.79954 6.32452H14.0853C14.464 6.32486 14.8272 6.45825 15.095 6.69542C15.3628 6.93259 15.5135 7.25416 15.5138 7.58957V12.6498Z" fill="#55AB60"/>
<path d="M11.2275 11.3847H12.6561V12.6498H11.2275V11.3847Z" fill="#55AB60"/>
<path d="M11.2275 8.85462H12.6561V10.1197H11.2275V8.85462Z" fill="#55AB60"/>
</svg>
