<svg width="24" height="22" viewBox="0 0 24 22" fill="none" xmlns="http://www.w3.org/2000/svg">
<path d="M17.1335 4.5033H5.86679C5.38814 4.5033 5.00012 4.86012 5.00012 5.30027V18.0519C5.00012 18.4921 5.38814 18.8489 5.86679 18.8489H17.1335C17.6121 18.8489 18.0001 18.4921 18.0001 18.0519V5.30027C18.0001 4.86012 17.6121 4.5033 17.1335 4.5033Z" stroke="#55AB60" stroke-width="1.5" stroke-linejoin="round"/>
<path d="M8.90076 2.90933V5.30027V2.90933Z" fill="white"/>
<path d="M8.90076 2.90933V5.30027" stroke="#55AB60" stroke-width="1.5" stroke-linecap="round" stroke-linejoin="round"/>
<path d="M14.0998 2.90933V5.30027V2.90933Z" fill="white"/>
<path d="M14.0998 2.90933V5.30027" stroke="#55AB60" stroke-width="1.5" stroke-linecap="round" stroke-linejoin="round"/>
<path d="M8.03296 8.8867H14.9663H8.03296Z" fill="white"/>
<path d="M8.03296 8.8867H14.9663" stroke="#55AB60" stroke-width="1.5" stroke-linecap="round" stroke-linejoin="round"/>
<path d="M8.03296 12.0746H13.233H8.03296Z" fill="white"/>
<path d="M8.03296 12.0746H13.233" stroke="#55AB60" stroke-width="1.5" stroke-linecap="round" stroke-linejoin="round"/>
<path d="M8.03296 15.2625H11.4996H8.03296Z" fill="white"/>
<path d="M8.03296 15.2625H11.4996" stroke="#55AB60" stroke-width="1.5" stroke-linecap="round" stroke-linejoin="round"/>
</svg>
