<svg width="24" height="22" viewBox="0 0 24 22" fill="none" xmlns="http://www.w3.org/2000/svg">
<path d="M18.3637 7.50932H5.27283V6.06027H18.3637V7.50932ZM16.7274 3.16216H6.90919V4.61121H16.7274V3.16216Z" fill="#55AB60"/>
<path d="M10.4356 17.0006L7.7356 14.6097L8.88105 13.5953L10.4356 14.9719L14.772 11.1319L15.9174 12.1463L10.4356 17.0006Z" fill="#55AB60"/>
<path d="M19.9998 8.95838H3.63612C3.20213 8.95838 2.78591 9.11105 2.47904 9.3828C2.17216 9.65455 1.99976 10.0231 1.99976 10.4074L1.99976 17.6527C1.99976 18.037 2.17216 18.4056 2.47904 18.6773C2.78591 18.9491 3.20213 19.1018 3.63612 19.1018H19.9998C20.4337 19.1018 20.85 18.9491 21.1568 18.6773C21.4637 18.4056 21.6361 18.037 21.6361 17.6527V10.4074C21.6361 10.0231 21.4637 9.65455 21.1568 9.3828C20.85 9.11105 20.4337 8.95838 19.9998 8.95838ZM19.9998 17.6527H3.63612V10.4074H19.9998V17.6527Z" fill="#55AB60"/>
</svg>
