<svg width="23" height="24" viewBox="0 0 23 24" fill="none" xmlns="http://www.w3.org/2000/svg">
<path d="M22.9287 10.1937L22.1321 1.64609C22.0918 1.20312 21.7446 0.853125 21.3087 0.809375L12.8963 0H12.8856C12.7995 0 12.7322 0.0273438 12.681 0.0792969L0.0786991 12.8844C0.0537518 12.9097 0.0339594 12.9397 0.0204552 12.9728C0.00695092 13.0059 0 13.0413 0 13.0771C0 13.113 0.00695092 13.1484 0.0204552 13.1815C0.0339594 13.2146 0.0537518 13.2446 0.0786991 13.2699L9.86886 23.2176C9.92 23.2695 9.98727 23.2969 10.0599 23.2969C10.1326 23.2969 10.1999 23.2695 10.251 23.2176L22.8533 10.4125C22.9072 10.3551 22.9341 10.2758 22.9287 10.1937ZM10.0572 20.4723L2.78055 13.0785L13.5368 2.14922L20.1838 2.78906L20.8135 9.54297L10.0572 20.4723ZM15.9857 4.64844C14.6805 4.64844 13.6175 5.72852 13.6175 7.05469C13.6175 8.38086 14.6805 9.46094 15.9857 9.46094C17.2909 9.46094 18.3539 8.38086 18.3539 7.05469C18.3539 5.72852 17.2909 4.64844 15.9857 4.64844ZM15.9857 7.92969C15.5094 7.92969 15.1246 7.53867 15.1246 7.05469C15.1246 6.5707 15.5094 6.17969 15.9857 6.17969C16.462 6.17969 16.8468 6.5707 16.8468 7.05469C16.8468 7.53867 16.462 7.92969 15.9857 7.92969Z" fill="#CACACA"/>
</svg>
