<svg width="58" height="80" viewBox="0 0 58 80" fill="none" xmlns="http://www.w3.org/2000/svg">
<g id="Group 400">
<path id="Vector" d="M45.3415 8.52875C46.5651 8.53095 47.7381 8.98286 48.6041 9.78579C49.4702 10.5887 49.959 11.6774 49.9637 12.814V21.5015C49.959 22.6381 49.4702 23.7268 48.6041 24.5297C47.7381 25.3327 46.5651 25.7846 45.3415 25.7868H35.998" stroke="black" stroke-width="2.4923" stroke-linecap="round" stroke-linejoin="round"/>
<g id="Group 399">
<path id="Vector_2" d="M15.7926 77.9954C19.0212 77.9954 21.6385 75.5644 21.6385 72.5657C21.6385 69.5669 19.0212 67.136 15.7926 67.136C12.5641 67.136 9.94678 69.5669 9.94678 72.5657C9.94678 75.5644 12.5641 77.9954 15.7926 77.9954Z" stroke="black" stroke-width="2.4923" stroke-linecap="round" stroke-linejoin="round"/>
<path id="Vector_3" d="M8.95673 7.44529e-06C8.95673 7.44529e-06 8.66897 22.9383 30.4044 20.14C33.426 -0.0918779 8.95673 7.44529e-06 8.95673 7.44529e-06Z" fill="#A3CB38"/>
<path id="Vector_4" d="M9.146 3.24951C9.82944 8.98827 13.2737 22.2701 30.4318 20.0648L9.146 3.24951Z" fill="#C4E538"/>
<path id="Vector_5" d="M30.405 19.9398L12.2847 0.167419C18.4357 0.793921 32.7881 3.97656 30.405 19.9398Z" fill="#A2E54C"/>
<path id="Vector_6" d="M2.07715 51.6823H41.6452" stroke="#A2E54C" stroke-width="2.4923" stroke-linecap="round" stroke-linejoin="round"/>
<path id="Vector_7" d="M55.808 53.3529C55.808 56.0115 54.6711 58.5611 52.6473 60.441C50.6236 62.3209 47.8788 63.377 45.0167 63.377H13.0925C10.2305 63.377 7.48571 62.3209 5.46195 60.441C3.4382 58.5611 2.30127 56.0115 2.30127 53.3529V35.8109C2.30127 33.1524 3.4382 30.6027 5.46195 28.7228C7.48571 26.843 10.2305 25.7869 13.0925 25.7869H45.0167" stroke="black" stroke-width="2.4923" stroke-linecap="round" stroke-linejoin="round"/>
<path id="Vector_8" d="M51.9876 69.3749C52.6681 70.2431 53.0561 71.2793 53.1026 72.3523C53.149 73.4254 52.8518 74.4871 52.2486 75.4033C51.6453 76.3194 50.7631 77.0489 49.7135 77.4993C48.6639 77.9498 47.4941 78.1011 46.3519 77.934C45.2098 77.7669 44.1466 77.289 43.2969 76.5607C42.4472 75.8324 41.8491 74.8865 41.5782 73.8424C41.3073 72.7984 41.3759 71.7032 41.7752 70.6954C42.1745 69.6875 42.8865 68.8123 43.8214 68.1804C44.4416 67.7597 45.1451 67.4569 45.8916 67.2893C46.6381 67.1216 47.4128 67.0925 48.1714 67.2034C48.93 67.3144 49.6576 67.5633 50.3125 67.9359C50.9674 68.3085 51.5366 68.7975 51.9876 69.3749Z" stroke="black" stroke-width="2.4923" stroke-linecap="round" stroke-linejoin="round"/>
<path id="Vector_9" d="M23.417 13.4576L33.6068 22.922" stroke="#A3CB38" stroke-width="2.4923" stroke-linecap="round" stroke-linejoin="round"/>
</g>
</g>
</svg>
